<svg xmlns="http://www.w3.org/2000/svg" width="690" height="880" viewBox="0 0 690 880">
<defs><pattern id="hatch" width="9" height="9" patternTransform="rotate(45)"
  patternUnits="userSpaceOnUse">
  <line x1="0" y1="0" x2="0" y2="9" stroke="#1b5fbe" stroke-width="0.9"/></pattern></defs>
<rect width="690" height="880" fill="#ffffff"/>
<line x1="90.0" y1="400.0" x2="479.2" y2="400.0" stroke="#e08a1e" stroke-width="1.2" stroke-dasharray="22 5 4 5"/>
<polygon points="300.0,316.9 300.0,262.3 306.4,255.9 383.2,255.9 383.2,120.0 440.8,120.0 440.8,316.9" fill="url(#hatch)" stroke="#1b5fbe" stroke-width="2.2" stroke-linejoin="round"/><polygon points="300.0,483.1 300.0,537.7 306.4,544.1 383.2,544.1 383.2,680.0 440.8,680.0 440.8,483.1" fill="url(#hatch)" stroke="#1b5fbe" stroke-width="2.2" stroke-linejoin="round"/><line x1="300.0" y1="316.8" x2="300.0" y2="262.3" stroke="#0d8f7a" stroke-width="5" stroke-linecap="round"/><line x1="300.0" y1="255.9" x2="383.2" y2="255.9" stroke="#0d8f7a" stroke-width="5" stroke-linecap="round"/><line x1="300.0" y1="483.2" x2="300.0" y2="537.7" stroke="#0d8f7a" stroke-width="5" stroke-linecap="round"/><line x1="300.0" y1="544.1" x2="383.2" y2="544.1" stroke="#0d8f7a" stroke-width="5" stroke-linecap="round"/><line x1="300.0" y1="316.9" x2="440.8" y2="316.9" stroke="#0d8f7a" stroke-width="5" stroke-linecap="round"/><line x1="300.0" y1="483.1" x2="440.8" y2="483.1" stroke="#0d8f7a" stroke-width="5" stroke-linecap="round"/><line x1="300.0" y1="262.3" x2="306.4" y2="255.9" stroke="#0d8f7a" stroke-width="5" stroke-linecap="round"/><line x1="300.0" y1="537.7" x2="306.4" y2="544.1" stroke="#0d8f7a" stroke-width="5" stroke-linecap="round"/><polygon points="415.2,120.0 407.4,107.0 423.0,107.0" fill="none" stroke="#1b5fbe" stroke-width="2"/><polygon points="415.2,680.0 407.4,693.0 423.0,693.0" fill="none" stroke="#1b5fbe" stroke-width="2"/><line x1="470.8" y1="208.0" x2="449.8" y2="208.0" stroke="#1b5fbe" stroke-width="2"/><polygon points="440.8,208.0 451.8,204.9 451.8,211.1" fill="#1b5fbe"/><line x1="470.8" y1="592.0" x2="449.8" y2="592.0" stroke="#1b5fbe" stroke-width="2"/><polygon points="440.8,592.0 451.8,588.9 451.8,595.1" fill="#1b5fbe"/><line x1="383.2" y1="255.9" x2="118.0" y2="255.9" stroke="#7b8796" stroke-width="0.9"/><line x1="383.2" y1="544.1" x2="118.0" y2="544.1" stroke="#7b8796" stroke-width="0.9"/><line x1="130.0" y1="239.9" x2="130.0" y2="560.1" stroke="#1b2430" stroke-width="1.0"/><polygon points="130.0,255.9 132.5,264.9 127.5,264.9" fill="#1b2430"/><polygon points="130.0,544.1 127.5,535.1 132.5,535.1" fill="#1b2430"/><text x="122.0" y="400.0" font-family="DejaVu Sans, Arial, sans-serif" font-size="16" text-anchor="middle" fill="#1b2430" transform="rotate(-90 122.0 400.0)">&#216;90,06</text><circle cx="130.0" cy="221.9" r="11" fill="#ffffff" stroke="#1b2430" stroke-width="1.3"/><text x="130.0" y="226.9" font-family="DejaVu Sans, Arial, sans-serif" font-size="14" text-anchor="middle" fill="#1b2430">2</text><line x1="341.6" y1="300.9" x2="341.6" y2="499.1" stroke="#1b2430" stroke-width="1.0"/><polygon points="341.6,316.9 344.1,325.9 339.1,325.9" fill="#1b2430"/><polygon points="341.6,483.1 339.1,474.1 344.1,474.1" fill="#1b2430"/><text x="357.6" y="400.0" font-family="DejaVu Sans, Arial, sans-serif" font-size="16" text-anchor="middle" fill="#1b2430" transform="rotate(-90 357.6 400.0)">&#216;51,94</text><circle cx="341.6" cy="282.9" r="11" fill="#ffffff" stroke="#1b2430" stroke-width="1.3"/><text x="341.6" y="287.9" font-family="DejaVu Sans, Arial, sans-serif" font-size="14" text-anchor="middle" fill="#1b2430">1</text><line x1="300.0" y1="544.1" x2="300.0" y2="766.5" stroke="#7b8796" stroke-width="0.9"/><line x1="383.2" y1="544.1" x2="383.2" y2="766.5" stroke="#7b8796" stroke-width="0.9"/><line x1="286.0" y1="754.5" x2="397.2" y2="754.5" stroke="#1b2430" stroke-width="1.0"/><polygon points="300.0,754.5 309.0,752.0 309.0,757.0" fill="#1b2430"/><polygon points="383.2,754.5 374.2,757.0 374.2,752.0" fill="#1b2430"/><text x="341.6" y="745.5" font-family="DejaVu Sans, Arial, sans-serif" font-size="16" text-anchor="middle" fill="#1b2430">26</text><circle cx="423.2" cy="754.5" r="11" fill="#ffffff" stroke="#1b2430" stroke-width="1.3"/><text x="423.2" y="759.5" font-family="DejaVu Sans, Arial, sans-serif" font-size="14" text-anchor="middle" fill="#1b2430">4</text><line x1="300.0" y1="680.0" x2="300.0" y2="826.5" stroke="#7b8796" stroke-width="0.9"/><line x1="440.8" y1="680.0" x2="440.8" y2="826.5" stroke="#7b8796" stroke-width="0.9"/><line x1="286.0" y1="814.5" x2="454.8" y2="814.5" stroke="#1b2430" stroke-width="1.0"/><polygon points="300.0,814.5 309.0,812.0 309.0,817.0" fill="#1b2430"/><polygon points="440.8,814.5 431.8,817.0 431.8,812.0" fill="#1b2430"/><text x="370.4" y="805.5" font-family="DejaVu Sans, Arial, sans-serif" font-size="16" text-anchor="middle" fill="#1b2430">44</text><circle cx="480.8" cy="814.5" r="11" fill="#ffffff" stroke="#1b2430" stroke-width="1.3"/><text x="480.8" y="819.5" font-family="DejaVu Sans, Arial, sans-serif" font-size="14" text-anchor="middle" fill="#1b2430">5</text><line x1="303.2" y1="259.2" x2="240.0" y2="195.2" stroke="#7b8796" stroke-width="0.9"/><text x="200.0" y="188.2" font-family="DejaVu Sans, Arial, sans-serif" font-size="15" text-anchor="middle" fill="#1b2430">2&#215;45&#176;</text><circle cx="152.0" cy="183.2" r="11" fill="#ffffff" stroke="#1b2430" stroke-width="1.3"/><text x="152.0" y="188.2" font-family="DejaVu Sans, Arial, sans-serif" font-size="14" text-anchor="middle" fill="#1b2430">3</text>
<path d="M 540 52 l 9 16 l 16 -30" fill="none" stroke="#1b2430" stroke-width="1.6"/><line x1="565.0" y1="38.0" x2="632.0" y2="38.0" stroke="#1b2430" stroke-width="1.6"/><text x="598.0" y="32.0" font-family="DejaVu Sans, Arial, sans-serif" font-size="17" text-anchor="middle" fill="#1b2430" font-style="italic">Ra 1,6</text>
<text x="345.0" y="854.0" font-family="DejaVu Sans, Arial, sans-serif" font-size="18" text-anchor="middle" fill="#1b2430">015 Токарно-винторезная (установ Б). Станок 16К20</text>
</svg>