<svg xmlns="http://www.w3.org/2000/svg" width="690" height="880" viewBox="0 0 690 880">
<defs><pattern id="hatch" width="9" height="9" patternTransform="rotate(45)"
  patternUnits="userSpaceOnUse">
  <line x1="0" y1="0" x2="0" y2="9" stroke="#1b5fbe" stroke-width="0.9"/></pattern></defs>
<rect width="690" height="880" fill="#ffffff"/>
<line x1="90.0" y1="400.0" x2="479.2" y2="400.0" stroke="#e08a1e" stroke-width="1.2" stroke-dasharray="22 5 4 5"/>
<polygon points="300.0,316.8 300.0,262.4 306.4,256.0 383.2,256.0 383.2,120.0 440.8,120.0 440.8,316.8" fill="url(#hatch)" stroke="#1b5fbe" stroke-width="2.2" stroke-linejoin="round"/><polygon points="300.0,483.2 300.0,537.6 306.4,544.0 383.2,544.0 383.2,680.0 440.8,680.0 440.8,483.2" fill="url(#hatch)" stroke="#1b5fbe" stroke-width="2.2" stroke-linejoin="round"/><rect x="383.2" y="153.6" width="57.6" height="44.8" fill="#ffffff" stroke="#1b5fbe" stroke-width="2.2"/><rect x="383.2" y="601.6" width="57.6" height="44.8" fill="#ffffff" stroke="#1b5fbe" stroke-width="2.2"/><line x1="383.2" y1="198.4" x2="440.8" y2="198.4" stroke="#0d8f7a" stroke-width="5" stroke-linecap="round"/><line x1="383.2" y1="153.6" x2="440.8" y2="153.6" stroke="#0d8f7a" stroke-width="5" stroke-linecap="round"/><line x1="383.2" y1="601.6" x2="440.8" y2="601.6" stroke="#0d8f7a" stroke-width="5" stroke-linecap="round"/><line x1="383.2" y1="646.4" x2="440.8" y2="646.4" stroke="#0d8f7a" stroke-width="5" stroke-linecap="round"/><polygon points="396.0,120.0 388.2,107.0 403.8,107.0" fill="none" stroke="#1b5fbe" stroke-width="2"/><polygon points="396.0,680.0 388.2,693.0 403.8,693.0" fill="none" stroke="#1b5fbe" stroke-width="2"/><line x1="470.8" y1="240.0" x2="449.8" y2="240.0" stroke="#1b5fbe" stroke-width="2"/><polygon points="440.8,240.0 451.8,236.9 451.8,243.1" fill="#1b5fbe"/><line x1="470.8" y1="560.0" x2="449.8" y2="560.0" stroke="#1b5fbe" stroke-width="2"/><polygon points="440.8,560.0 451.8,556.9 451.8,563.1" fill="#1b5fbe"/><line x1="383.2" y1="176.0" x2="108.0" y2="176.0" stroke="#7b8796" stroke-width="0.9"/><line x1="383.2" y1="624.0" x2="108.0" y2="624.0" stroke="#7b8796" stroke-width="0.9"/><line x1="120.0" y1="160.0" x2="120.0" y2="640.0" stroke="#1b2430" stroke-width="1.0"/><polygon points="120.0,176.0 122.5,185.0 117.5,185.0" fill="#1b2430"/><polygon points="120.0,624.0 117.5,615.0 122.5,615.0" fill="#1b2430"/><text x="112.0" y="400.0" font-family="DejaVu Sans, Arial, sans-serif" font-size="16" text-anchor="middle" fill="#1b2430" transform="rotate(-90 112.0 400.0)">&#216;140</text><circle cx="120.0" cy="142.0" r="11" fill="#ffffff" stroke="#1b2430" stroke-width="1.3"/><text x="120.0" y="147.0" font-family="DejaVu Sans, Arial, sans-serif" font-size="14" text-anchor="middle" fill="#1b2430">2</text><line x1="396.0" y1="198.4" x2="183.0" y2="198.4" stroke="#7b8796" stroke-width="0.9"/><line x1="396.0" y1="153.6" x2="183.0" y2="153.6" stroke="#7b8796" stroke-width="0.9"/><line x1="195.0" y1="218.4" x2="195.0" y2="133.6" stroke="#1b2430" stroke-width="1.0"/><polygon points="195.0,198.4 192.5,189.4 197.5,189.4" fill="#1b2430"/><polygon points="195.0,153.6 197.5,162.6 192.5,162.6" fill="#1b2430"/><text x="187.0" y="176.0" font-family="DejaVu Sans, Arial, sans-serif" font-size="16" text-anchor="middle" fill="#1b2430" transform="rotate(-90 187.0 176.0)">4 отв. &#216;14</text><circle cx="195.0" cy="115.6" r="11" fill="#ffffff" stroke="#1b2430" stroke-width="1.3"/><text x="195.0" y="120.6" font-family="DejaVu Sans, Arial, sans-serif" font-size="14" text-anchor="middle" fill="#1b2430">1</text><line x1="383.2" y1="680.0" x2="383.2" y2="776.5" stroke="#7b8796" stroke-width="0.9"/><line x1="440.8" y1="680.0" x2="440.8" y2="776.5" stroke="#7b8796" stroke-width="0.9"/><line x1="369.2" y1="764.5" x2="454.8" y2="764.5" stroke="#1b2430" stroke-width="1.0"/><polygon points="383.2,764.5 392.2,762.0 392.2,767.0" fill="#1b2430"/><polygon points="440.8,764.5 431.8,767.0 431.8,762.0" fill="#1b2430"/><text x="412.0" y="755.5" font-family="DejaVu Sans, Arial, sans-serif" font-size="16" text-anchor="middle" fill="#1b2430">18</text><circle cx="480.8" cy="764.5" r="11" fill="#ffffff" stroke="#1b2430" stroke-width="1.3"/><text x="480.8" y="769.5" font-family="DejaVu Sans, Arial, sans-serif" font-size="14" text-anchor="middle" fill="#1b2430">3</text>
<path d="M 540 52 l 9 16 l 16 -30" fill="none" stroke="#1b2430" stroke-width="1.6"/><line x1="565.0" y1="38.0" x2="632.0" y2="38.0" stroke="#1b2430" stroke-width="1.6"/><text x="598.0" y="32.0" font-family="DejaVu Sans, Arial, sans-serif" font-size="17" text-anchor="middle" fill="#1b2430" font-style="italic">Ra 12,5</text>
<text x="345.0" y="854.0" font-family="DejaVu Sans, Arial, sans-serif" font-size="18" text-anchor="middle" fill="#1b2430">020 Вертикально-сверлильная. Станок 2Н135, кондуктор</text>
</svg>