<svg xmlns="http://www.w3.org/2000/svg" width="830" height="770" viewBox="0 0 830 770">
<defs><pattern id="hatch" width="9" height="9" patternTransform="rotate(45)"
  patternUnits="userSpaceOnUse">
  <line x1="0" y1="0" x2="0" y2="9" stroke="#1b5fbe" stroke-width="0.9"/></pattern></defs>
<rect width="830" height="770" fill="#ffffff"/>
<line x1="205.6" y1="300.0" x2="620.0" y2="300.0" stroke="#e08a1e" stroke-width="1.2" stroke-dasharray="22 5 4 5"/>
<polygon points="250.0,85.4 423.9,85.4 423.9,149.0 557.1,149.0 557.1,244.5 250.0,244.5" fill="url(#hatch)" stroke="#1b5fbe" stroke-width="2.2" stroke-linejoin="round"/><polygon points="250.0,514.6 423.9,514.6 423.9,451.0 557.1,451.0 557.1,355.5 250.0,355.5" fill="url(#hatch)" stroke="#1b5fbe" stroke-width="2.2" stroke-linejoin="round"/><line x1="557.1" y1="244.5" x2="557.1" y2="149.0" stroke="#0d8f7a" stroke-width="5" stroke-linecap="round"/><line x1="557.1" y1="355.5" x2="557.1" y2="451.0" stroke="#0d8f7a" stroke-width="5" stroke-linecap="round"/><line x1="423.9" y1="149.0" x2="557.1" y2="149.0" stroke="#0d8f7a" stroke-width="5" stroke-linecap="round"/><line x1="423.9" y1="451.0" x2="557.1" y2="451.0" stroke="#0d8f7a" stroke-width="5" stroke-linecap="round"/><line x1="250.0" y1="244.5" x2="557.1" y2="244.5" stroke="#0d8f7a" stroke-width="5" stroke-linecap="round"/><line x1="250.0" y1="355.5" x2="557.1" y2="355.5" stroke="#0d8f7a" stroke-width="5" stroke-linecap="round"/><polygon points="309.2,85.4 301.4,72.4 317.0,72.4" fill="none" stroke="#1b5fbe" stroke-width="2"/><polygon points="309.2,514.6 301.4,527.6 317.0,527.6" fill="none" stroke="#1b5fbe" stroke-width="2"/><line x1="353.6" y1="53.4" x2="353.6" y2="76.4" stroke="#1b5fbe" stroke-width="2"/><polygon points="353.6,85.4 350.5,74.4 356.7,74.4" fill="#1b5fbe"/><line x1="353.6" y1="546.6" x2="353.6" y2="523.6" stroke="#1b5fbe" stroke-width="2"/><polygon points="353.6,514.6 356.7,525.6 350.5,525.6" fill="#1b5fbe"/><line x1="472.0" y1="149.0" x2="88.0" y2="149.0" stroke="#7b8796" stroke-width="0.9"/><line x1="472.0" y1="451.0" x2="88.0" y2="451.0" stroke="#7b8796" stroke-width="0.9"/><line x1="100.0" y1="133.0" x2="100.0" y2="467.0" stroke="#1b2430" stroke-width="1.0"/><polygon points="100.0,149.0 102.5,158.0 97.5,158.0" fill="#1b2430"/><polygon points="100.0,451.0 97.5,442.0 102.5,442.0" fill="#1b2430"/><text x="92.0" y="300.0" font-family="DejaVu Sans, Arial, sans-serif" font-size="15" text-anchor="middle" fill="#1b2430" transform="rotate(-90 92.0 300.0)">&#216;40,8</text><circle cx="100.0" cy="115.0" r="11" fill="#fff" stroke="#1b2430" stroke-width="1.3"/><text x="100.0" y="120.0" font-family="DejaVu Sans, Arial, sans-serif" font-size="14" text-anchor="middle" fill="#1b2430">1</text><line x1="324.0" y1="244.5" x2="158.0" y2="244.5" stroke="#7b8796" stroke-width="0.9"/><line x1="324.0" y1="355.5" x2="158.0" y2="355.5" stroke="#7b8796" stroke-width="0.9"/><line x1="170.0" y1="228.5" x2="170.0" y2="371.5" stroke="#1b2430" stroke-width="1.0"/><polygon points="170.0,244.5 172.5,253.5 167.5,253.5" fill="#1b2430"/><polygon points="170.0,355.5 167.5,346.5 172.5,346.5" fill="#1b2430"/><text x="162.0" y="300.0" font-family="DejaVu Sans, Arial, sans-serif" font-size="15" text-anchor="middle" fill="#1b2430" transform="rotate(-90 162.0 300.0)">&#216;15</text><circle cx="170.0" cy="210.5" r="11" fill="#fff" stroke="#1b2430" stroke-width="1.3"/><text x="170.0" y="215.5" font-family="DejaVu Sans, Arial, sans-serif" font-size="14" text-anchor="middle" fill="#1b2430">3</text><line x1="423.9" y1="514.6" x2="423.9" y2="592.6" stroke="#7b8796" stroke-width="0.9"/><line x1="557.1" y1="514.6" x2="557.1" y2="592.6" stroke="#7b8796" stroke-width="0.9"/><line x1="409.9" y1="580.6" x2="571.1" y2="580.6" stroke="#1b2430" stroke-width="1.0"/><polygon points="423.9,580.6 432.9,578.1 432.9,583.1" fill="#1b2430"/><polygon points="557.1,580.6 548.1,583.1 548.1,578.1" fill="#1b2430"/><text x="490.5" y="571.6" font-family="DejaVu Sans, Arial, sans-serif" font-size="15" text-anchor="middle" fill="#1b2430">18</text><circle cx="595.1" cy="580.6" r="11" fill="#fff" stroke="#1b2430" stroke-width="1.3"/><text x="595.1" y="585.6" font-family="DejaVu Sans, Arial, sans-serif" font-size="14" text-anchor="middle" fill="#1b2430">2</text><line x1="250.0" y1="514.6" x2="250.0" y2="648.6" stroke="#7b8796" stroke-width="0.9"/><line x1="557.1" y1="514.6" x2="557.1" y2="648.6" stroke="#7b8796" stroke-width="0.9"/><line x1="236.0" y1="636.6" x2="571.1" y2="636.6" stroke="#1b2430" stroke-width="1.0"/><polygon points="250.0,636.6 259.0,634.1 259.0,639.1" fill="#1b2430"/><polygon points="557.1,636.6 548.1,639.1 548.1,634.1" fill="#1b2430"/><text x="403.6" y="627.6" font-family="DejaVu Sans, Arial, sans-serif" font-size="15" text-anchor="middle" fill="#1b2430">41,5</text>
<path d="M 680 46 l 9 16 l 16 -30" fill="none" stroke="#1b2430" stroke-width="1.6"/><line x1="705.0" y1="32.0" x2="772.0" y2="32.0" stroke="#1b2430" stroke-width="1.6"/><text x="738.0" y="26.0" font-family="DejaVu Sans, Arial, sans-serif" font-size="17" text-anchor="middle" fill="#1b2430" font-style="italic">Ra 6,3</text>
<text x="415.0" y="748.0" font-family="DejaVu Sans, Arial, sans-serif" font-size="18" text-anchor="middle" fill="#1b2430">010 Токарная, установ 1 (16К20): торец, Ø40,8, сверление Ø15</text>
</svg>