<svg xmlns="http://www.w3.org/2000/svg" width="830" height="770" viewBox="0 0 830 770">
<defs><pattern id="hatch" width="9" height="9" patternTransform="rotate(45)"
  patternUnits="userSpaceOnUse">
  <line x1="0" y1="0" x2="0" y2="9" stroke="#1b5fbe" stroke-width="0.9"/></pattern></defs>
<rect width="830" height="770" fill="#ffffff"/>
<line x1="205.6" y1="300.0" x2="620.0" y2="300.0" stroke="#e08a1e" stroke-width="1.2" stroke-dasharray="22 5 4 5"/>
<polygon points="250.0,166.8 264.8,152.0 301.8,152.0 301.8,111.3 316.6,96.5 324.0,96.5 338.8,111.3 338.8,152.0 516.4,152.0 531.2,166.8 531.2,174.2 516.4,189.0 264.8,189.0 250.0,174.2" fill="url(#hatch)" stroke="#1b5fbe" stroke-width="2.2" stroke-linejoin="round"/><polygon points="250.0,433.2 264.8,448.0 301.8,448.0 301.8,488.7 316.6,503.5 324.0,503.5 338.8,488.7 338.8,448.0 516.4,448.0 531.2,433.2 531.2,425.8 516.4,411.0 264.8,411.0 250.0,425.8" fill="url(#hatch)" stroke="#1b5fbe" stroke-width="2.2" stroke-linejoin="round"/><line x1="301.8" y1="118.7" x2="338.8" y2="118.7" stroke="#1b5fbe" stroke-width="1.6" stroke-dasharray="7 4"/><line x1="301.8" y1="481.3" x2="338.8" y2="481.3" stroke="#1b5fbe" stroke-width="1.6" stroke-dasharray="7 4"/><line x1="250.0" y1="181.6" x2="130.0" y2="78.0" stroke="#1b2430" stroke-width="1.0"/><circle cx="130.0" cy="78.0" r="11" fill="#fff" stroke="#1b2430" stroke-width="1.3"/><text x="130.0" y="83.0" font-family="DejaVu Sans, Arial, sans-serif" font-size="14" text-anchor="middle" fill="#1b2430">1</text><line x1="279.6" y1="152.0" x2="190.0" y2="48.4" stroke="#1b2430" stroke-width="1.0"/><circle cx="190.0" cy="48.4" r="11" fill="#fff" stroke="#1b2430" stroke-width="1.3"/><text x="190.0" y="53.4" font-family="DejaVu Sans, Arial, sans-serif" font-size="14" text-anchor="middle" fill="#1b2430">2</text><line x1="320.3" y1="96.5" x2="326.6" y2="26.2" stroke="#1b2430" stroke-width="1.0"/><circle cx="326.6" cy="26.2" r="11" fill="#fff" stroke="#1b2430" stroke-width="1.3"/><text x="326.6" y="31.2" font-family="DejaVu Sans, Arial, sans-serif" font-size="14" text-anchor="middle" fill="#1b2430">3</text><line x1="327.7" y1="118.7" x2="442.4" y2="33.6" stroke="#1b2430" stroke-width="1.0"/><circle cx="442.4" cy="33.6" r="11" fill="#fff" stroke="#1b2430" stroke-width="1.3"/><text x="442.4" y="38.6" font-family="DejaVu Sans, Arial, sans-serif" font-size="14" text-anchor="middle" fill="#1b2430">4</text><line x1="442.4" y1="152.0" x2="546.0" y2="78.0" stroke="#1b2430" stroke-width="1.0"/><circle cx="546.0" cy="78.0" r="11" fill="#fff" stroke="#1b2430" stroke-width="1.3"/><text x="546.0" y="83.0" font-family="DejaVu Sans, Arial, sans-serif" font-size="14" text-anchor="middle" fill="#1b2430">5</text><line x1="531.2" y1="170.5" x2="590.4" y2="211.2" stroke="#1b2430" stroke-width="1.0"/><circle cx="590.4" cy="211.2" r="11" fill="#fff" stroke="#1b2430" stroke-width="1.3"/><text x="590.4" y="216.2" font-family="DejaVu Sans, Arial, sans-serif" font-size="14" text-anchor="middle" fill="#1b2430">6</text><line x1="398.0" y1="411.0" x2="449.8" y2="529.4" stroke="#1b2430" stroke-width="1.0"/><circle cx="449.8" cy="529.4" r="11" fill="#fff" stroke="#1b2430" stroke-width="1.3"/><text x="449.8" y="534.4" font-family="DejaVu Sans, Arial, sans-serif" font-size="14" text-anchor="middle" fill="#1b2430">7</text><line x1="523.8" y1="418.4" x2="583.0" y2="492.4" stroke="#1b2430" stroke-width="1.0"/><circle cx="583.0" cy="492.4" r="11" fill="#fff" stroke="#1b2430" stroke-width="1.3"/><text x="583.0" y="497.4" font-family="DejaVu Sans, Arial, sans-serif" font-size="14" text-anchor="middle" fill="#1b2430">8</text><text x="390.6" y="596.0" font-family="DejaVu Sans, Arial, sans-serif" font-size="15" text-anchor="middle" fill="#1b2430">1 — левый торец; 2, 5 — Ø40; 3 — буртик Ø55; 4 — паз 6×3 (4 шт.);</text><text x="390.6" y="629.3" font-family="DejaVu Sans, Arial, sans-serif" font-size="15" text-anchor="middle" fill="#1b2430">6 — правый торец; 7 — отверстие Ø30H9; 8 — фаски 2×45°</text>

<text x="415.0" y="748.0" font-family="DejaVu Sans, Arial, sans-serif" font-size="18" text-anchor="middle" fill="#1b2430">Рисунок 1 — Схема нумерации поверхностей детали «Втулка»</text>
</svg>